<?xml version="1.0" encoding="UTF-8"?>
<svg version="1.1" xmlns="http://www.w3.org/2000/svg" width="3854" height="3892">
<path d="M0 0 C1.95590926 0.6766793 3.91330159 1.34885692 5.87127686 2.01953125 C61.01453319 20.97063022 115.24360066 46.09594229 165.3180542 76.07666016 C167.90532737 77.62429633 170.50039981 79.15783601 173.09832764 80.6875 C193.64850969 92.83515912 213.64065656 105.80236413 233.04364014 119.70703125 C233.83383545 120.2705127 234.62403076 120.83399414 235.43817139 121.41455078 C245.124476 128.32456391 254.67457591 135.37219313 264.04364014 142.70703125 C265.21808658 143.62243782 266.39256678 144.53780107 267.56707764 145.453125 C278.6995099 154.147082 289.59531632 163.10710813 300.34783936 172.265625 C302.0459886 173.70902741 303.74954206 175.14584548 305.45379639 176.58203125 C312.32327225 182.39354371 319.00341143 188.36700976 325.54315186 194.5480957 C328.77737466 197.60435888 332.05106682 200.59488599 335.39129639 203.53515625 C342.64912611 210.04737512 349.48328734 216.99767334 356.36712646 223.90014648 C358.73278203 226.27117688 361.10375528 228.63679547 363.47528076 231.00195312 C365.0022943 232.52962729 366.52899771 234.05761153 368.05535889 235.5859375 C368.75344162 236.281996 369.45152435 236.9780545 370.17076111 237.69520569 C374.09744979 241.64042584 377.85258289 245.68207369 381.47966003 249.90493774 C384.04076746 252.85596957 386.73775927 255.67776469 389.41864014 258.51953125 C394.14111446 263.56134768 398.61016164 268.73067692 402.93035889 274.125 C405.0798304 276.75124893 407.31824102 279.26336578 409.60614014 281.76953125 C413.98032888 286.58189434 418.03505032 291.58859507 422.04364014 296.70703125 C422.87262332 297.75555944 423.70207417 298.803718 424.53192139 299.8515625 C441.24128505 320.98399301 457.14842657 342.5667699 472.04364014 365.01953125 C472.60980042 365.87109802 473.17596069 366.72266479 473.75927734 367.60003662 C486.58671071 386.90288527 498.75259239 406.46036827 510.04364014 426.70703125 C510.76003662 427.9911792 510.76003662 427.9911792 511.49090576 429.30126953 C515.06814897 435.73812901 518.57389378 442.21165775 522.04364014 448.70703125 C522.90795654 450.32279053 522.90795654 450.32279053 523.78973389 451.97119141 C561.15569391 522.1529018 588.33273277 597.83567936 627.29364014 813.08203125 C627.37396484 814.0671167 627.45428955 815.05220215 627.53704834 816.06713867 C628.09248914 823.61764178 628.11883679 831.13862716 628.04364014 838.70703125 C626.25977905 838.77434448 626.25977905 838.77434448 624.43988037 838.84301758 C532.76990286 842.35209367 442.68702241 854.20555072 331.04364014 888.70703125 C329.97043518 889.05864319 329.97043518 889.05864319 328.87554932 889.4173584 C246.77561308 916.3182668 168.66958949 954.92818058 96.79364014 1002.76953125 C96.04004211 1003.27064423 95.28644409 1003.7717572 94.51000977 1004.28805542 C79.81883828 1014.06982332 65.27275312 1024.0487414 51.29364014 1034.83203125 C50.40950439 1035.51015869 49.52536865 1036.18828613 48.61444092 1036.88696289 C46.87462514 1038.22194487 45.135803 1039.55822314 43.39813232 1040.89599609 C41.33857503 1042.48017237 39.2747196 1044.058392 37.20770264 1045.6328125 C27.52642327 1053.01653176 18.14747418 1060.73513792 8.87738037 1068.62524414 C5.4953318 1071.49890962 2.06900568 1074.30563685 -1.39385986 1077.08203125 C-6.40811011 1081.15794227 -11.13678273 1085.49555919 -15.83502197 1089.92724609 C-18.81858297 1092.73968015 -21.83573522 1095.49572562 -24.92901611 1098.1875 C-37.32652628 1108.97696492 -48.95398258 1120.60248012 -60.58135986 1132.20703125 C-61.19177124 1132.81485443 -61.80218262 1133.42267761 -62.43109131 1134.04891968 C-71.17543545 1142.76033707 -71.17543545 1142.76033707 -79.43048096 1151.93164062 C-82.1691432 1155.11812892 -85.0751624 1158.14989802 -87.95635986 1161.20703125 C-92.72296542 1166.29311272 -97.42962186 1171.40510132 -101.95635986 1176.70703125 C-102.93652685 1177.845312 -103.91702935 1178.98330388 -104.89776611 1180.12109375 C-105.98002166 1181.37871326 -107.0620511 1182.63652739 -108.14385986 1183.89453125 C-108.91173828 1184.78700562 -108.91173828 1184.78700562 -109.69512939 1185.69750977 C-112.51375475 1188.98529093 -115.27318154 1192.30663104 -117.95635986 1195.70703125 C-115.31635986 1196.03703125 -112.67635986 1196.36703125 -109.95635986 1196.70703125 C-109.46135986 1294.71703125 -109.46135986 1294.71703125 -108.95635986 1394.70703125 C-101.69635986 1383.81703125 -94.43635986 1372.92703125 -86.95635986 1361.70703125 C-73.8715974 1342.67464949 -73.8715974 1342.67464949 -69.64385986 1336.83203125 C-69.10954346 1336.09355957 -68.57522705 1335.35508789 -68.02471924 1334.59423828 C-55.66543437 1317.62354776 -42.45546348 1301.24515423 -28.82745361 1285.27905273 C-26.07667184 1282.05298145 -23.40797962 1278.77463926 -20.76885986 1275.45703125 C-16.06739816 1269.66734694 -10.95193647 1264.28774077 -5.80328369 1258.89550781 C-5.1499707 1258.21069336 -4.49665771 1257.52587891 -3.82354736 1256.8203125 C-2.95898926 1255.91986206 -2.95898926 1255.91986206 -2.07696533 1255.0012207 C-0.27572971 1253.05254339 1.45618043 1251.06906038 3.18597412 1249.05761719 C7.46030066 1244.15678918 12.0313937 1239.57560106 16.63348389 1234.984375 C17.53683975 1234.08006241 18.44019562 1233.17574982 19.3709259 1232.24403381 C21.27160081 1230.34268182 23.17323622 1228.44235572 25.07659912 1226.54370117 C27.49482405 1224.13117264 29.90852971 1221.71418044 32.32091427 1219.29581356 C34.65182415 1216.9603855 36.9865797 1214.62880948 39.32098389 1212.296875 C40.17643295 1211.4394017 41.03188202 1210.58192841 41.91325378 1209.69847107 C46.25719399 1205.37127691 50.66101736 1201.1816484 55.31921387 1197.19334412 C58.07292283 1194.81987467 60.70508858 1192.31869921 63.35614014 1189.83203125 C68.13121615 1185.38915245 73.03183746 1181.18380218 78.12176514 1177.1015625 C80.89845091 1174.82601654 83.59672182 1172.48439519 86.28948975 1170.11132812 C94.20088317 1163.14658838 102.42718076 1156.71889366 110.84344482 1150.37939453 C113.82932423 1148.10983462 116.77732651 1145.79356528 119.72625732 1143.47631836 C159.40989465 1112.33867006 202.58268386 1085.43494038 247.04364014 1061.70703125 C247.932771 1061.23088379 248.82190186 1060.75473633 249.73797607 1060.26416016 C286.93290266 1040.40403052 325.31350654 1022.87795806 365.04364014 1008.70703125 C365.86521606 1008.41376953 366.68679199 1008.12050781 367.53326416 1007.81835938 C440.4575955 981.85865452 515.54777461 964.26066366 592.60614014 956.45703125 C593.35690826 956.37989899 594.10767639 956.30276672 594.88119507 956.22329712 C600.59651796 955.64458313 606.31693943 955.15830937 612.04364014 954.70703125 C613.12671448 954.61982819 614.20978882 954.53262512 615.32568359 954.44277954 C638.20077846 952.65491929 661.00866448 952.34432153 683.94524765 952.38917542 C686.83511231 952.39460923 689.72496879 952.39698092 692.61483765 952.39904785 C719.43903219 952.42895331 746.12611979 952.72482783 772.83294678 955.48242188 C775.07211601 955.70992444 777.31227578 955.9216677 779.55340576 956.12890625 C865.35088027 964.10854104 950.43232818 984.5016059 1087.203125 1040.84570312 C1088.98200913 1041.67818904 1090.76255206 1042.50712755 1092.54315186 1043.3359375 C1106.42681576 1049.81403357 1119.96493552 1056.75850642 1133.34637451 1064.21582031 C1136.05181561 1065.71155115 1138.77101111 1067.17837216 1141.49676514 1068.63671875 C1154.97653402 1075.86132708 1168.07206722 1083.60754571 1181.04364014 1091.70703125 C1181.98272217 1092.29274902 1182.9218042 1092.8784668 1183.88934326 1093.48193359 C1201.69122141 1104.61887222 1219.06329 1116.35452244 1236.04364014 1128.70703125 C1236.77582764 1129.23941406 1237.50801514 1129.77179688 1238.26239014 1130.3203125 C1248.68572841 1137.91494878 1258.99082067 1145.62758413 1269.04364014 1153.70703125 C1269.68398193 1154.22120605 1270.32432373 1154.73538086 1270.98406982 1155.26513672 C1279.56763127 1162.17056834 1288.05925617 1169.17590327 1296.43280029 1176.33447266 C1298.08258697 1177.74021693 1299.74018758 1179.13630234 1301.39910889 1180.53125 C1309.7777446 1187.60529916 1317.79522743 1195.0132567 1325.75067139 1202.55761719 C1327.99384746 1204.66035592 1330.25971011 1206.73694131 1332.52906799 1208.81134033 C1339.58554003 1215.27352177 1346.42239982 1221.93069026 1353.17547607 1228.70849609 C1354.93507493 1230.47351669 1356.70004411 1232.23304258 1358.46551514 1233.9921875 C1363.63894044 1239.16257393 1368.739133 1244.3347037 1373.48651123 1249.90478516 C1376.34785493 1253.21655047 1379.4021366 1256.34973897 1382.41864014 1259.51953125 C1387.52460251 1264.9213461 1392.38097862 1270.39575102 1397.01239014 1276.2109375 C1399.06580183 1278.73426456 1401.21552071 1281.12635398 1403.41864014 1283.51953125 C1407.400476 1287.89403951 1411.06106097 1292.452322 1414.68255615 1297.12353516 C1417.64416558 1300.94026793 1420.66335972 1304.69934377 1423.73626709 1308.42700195 C1431.54934155 1317.9169141 1438.85317609 1327.73984006 1446.04364014 1337.70703125 C1446.52591064 1338.37186523 1447.00818115 1339.03669922 1447.50506592 1339.72167969 C1473.74299371 1375.96865144 1497.06686326 1414.20304777 1518.04364014 1453.70703125 C1518.60019287 1454.74633789 1519.15674561 1455.78564453 1519.73016357 1456.85644531 C1529.67039204 1475.4497192 1538.57524932 1494.40895541 1547.04364014 1513.70703125 C1547.32487732 1514.34600342 1547.6061145 1514.98497559 1547.89587402 1515.64331055 C1567.92944668 1561.21148389 1583.78451924 1608.48698502 1596.04364014 1656.70703125 C1596.23893311 1657.47382202 1596.43422607 1658.24061279 1596.63543701 1659.03063965 C1609.43064278 1709.43833048 1617.94391163 1760.85588874 1622.04364014 1812.70703125 C1622.14128662 1813.9403418 1622.23893311 1815.17365234 1622.33953857 1816.44433594 C1623.9534797 1837.51251686 1624.65074471 1858.58617345 1625.04364014 1879.70703125 C1625.06168701 1880.65400879 1625.07973389 1881.60098633 1625.09832764 1882.57666016 C1625.18589397 1887.95651651 1625.14189885 1893.327605 1625.04364014 1898.70703125 C1625.01681152 1900.43155518 1625.01681152 1900.43155518 1624.98944092 1902.19091797 C1623.44820352 1992.47142962 1609.82139299 2082.27053864 1549.04364014 2259.70703125 C1548.57087646 2260.81481934 1548.09811279 2261.92260742 1547.61102295 2263.06396484 C1534.00722003 2294.75832528 1518.61908525 2326.02534204 1501.04364014 2355.70703125 C1499.95922916 2357.56838301 1498.87592818 2359.43038181 1497.79364014 2361.29296875 C1478.51371219 2394.34630438 1457.1924155 2426.13844621 1433.80487061 2456.42285156 C1432.28440637 2458.39477607 1430.77232792 2460.37251786 1429.26629639 2462.35546875 C1419.43997096 2475.255507 1409.12483233 2487.73796926 1398.51434326 2499.99804688 C1397.04999125 2501.69965113 1395.59960219 2503.41218521 1394.15301514 2505.12890625 C1387.02127614 2513.57300017 1379.56259487 2521.65990482 1371.95819092 2529.67919922 C1370.07887633 2531.66971018 1368.21327836 2533.67209629 1366.35223389 2535.6796875 C1359.71951146 2542.82715424 1352.98888326 2549.861878 1346.10614014 2556.76953125 C1345.42052002 2557.45974365 1344.7348999 2558.14995605 1344.02850342 2558.86108398 C1340.07922465 2562.79838363 1336.01314861 2566.53449602 1331.79144287 2570.17749023 C1329.78159605 2571.93635186 1327.8984506 2573.78597756 1326.04364014 2575.70703125 C1322.89383984 2578.89964437 1319.63144525 2581.87864404 1316.23114014 2584.80078125 C1313.68852614 2587.01648773 1311.21253815 2589.29801717 1308.73114014 2591.58203125 C1304.26490499 2595.65563034 1299.67442635 2599.51530828 1294.96942139 2603.30859375 C1292.32132575 2605.47939578 1289.73217591 2607.69997748 1287.15130615 2609.94921875 C1280.1386452 2616.05182464 1272.88330337 2621.75120725 1265.46551514 2627.3515625 C1262.47320391 2629.61172659 1259.50682391 2631.90052448 1256.55926514 2634.21875 C1255.80419678 2634.81187988 1255.04912842 2635.40500977 1254.2711792 2636.01611328 C1252.86958597 2637.11938406 1251.47017177 2638.22543434 1250.07391357 2639.33544922 C1236.69805066 2649.838622 1222.44658902 2659.23337819 1208.29364014 2668.64453125 C1207.50894348 2669.16683319 1206.72424683 2669.68913513 1205.91577148 2670.2272644 C1136.95213415 2716.09080274 1062.59390775 2752.48298336 984.04364014 2778.70703125 C983.35304504 2778.93801514 982.66244995 2779.16899902 981.95092773 2779.40698242 C906.42068916 2804.59763074 825.71336344 2821.09129469 735.04364014 2824.70703125 C735.01493835 2824.06336105 734.98623657 2823.41969086 734.95666504 2822.7565155 C731.00559854 2734.74298672 720.75566116 2648.2383616 633.04364014 2401.70703125 C632.45079011 2400.49401529 631.85801899 2399.28096077 631.26531982 2398.06787109 C623.05979874 2381.29657724 614.48028812 2364.82708399 605.04364014 2348.70703125 C604.41844482 2347.63356445 603.79324951 2346.56009766 603.14910889 2345.45410156 C591.70524006 2325.83362231 579.83243669 2306.48423254 567.04364014 2287.70703125 C566.65176514 2287.12888672 566.25989014 2286.55074219 565.85614014 2285.95507812 C550.05351123 2262.66065411 533.27169596 2240.09044115 515.38787842 2218.35107422 C513.55967352 2216.11512584 511.77053892 2213.84909295 509.98114014 2211.58203125 C502.66870129 2202.41834207 494.92118592 2193.6012424 487.04364014 2184.921875 C485.24760485 2182.93290623 483.4841071 2180.92139931 481.73114014 2178.89453125 C474.99503325 2171.16920587 468.05445915 2163.5920991 460.72747803 2156.42333984 C459.02595163 2154.68900165 457.44947588 2152.8902643 455.87176514 2151.04296875 C451.96536251 2146.55448797 447.82369199 2142.33930604 443.60614014 2138.14453125 C442.53782959 2137.07041992 442.53782959 2137.07041992 441.44793701 2135.97460938 C437.36433068 2131.89842104 433.17502036 2128.01699634 428.80511475 2124.25024414 C426.61456362 2122.33112097 424.57106018 2120.29683345 422.54364014 2118.20703125 C419.21580997 2114.83944885 415.79852259 2111.66889248 412.20770264 2108.5859375 C408.7296581 2105.56619125 405.3467762 2102.44243295 401.94989014 2099.33203125 C400.99082764 2098.46578125 400.03176514 2097.59953125 399.04364014 2096.70703125 C398.48186097 2096.12689001 397.92008181 2095.54674876 397.34127903 2094.94902748 C393.09322094 2090.7831949 390.16018636 2088.90870171 384.17438507 2088.80346209 C383.33000633 2088.82385198 382.48562759 2088.84424187 381.61566162 2088.86524963 C380.69819405 2088.85926866 379.78072647 2088.85328769 378.83545685 2088.84712547 C375.7775589 2088.83564384 372.72238177 2088.87400873 369.66473389 2088.91235352 C367.46653812 2088.91432908 365.26833774 2088.91321766 363.07014465 2088.90925598 C357.11379053 2088.90724964 351.15842552 2088.94837062 345.20230103 2088.99727368 C338.97368399 2089.04106765 332.74504363 2089.04514758 326.51629639 2089.05345154 C316.06544223 2089.07272813 305.61492611 2089.11643484 295.16424561 2089.17895508 C284.40287072 2089.24326683 273.64159433 2089.29278688 262.88006592 2089.32250977 C262.21606769 2089.32434883 261.55206947 2089.32618789 260.86795008 2089.32808269 C257.53666787 2089.33721834 254.20538498 2089.3460484 250.87410164 2089.35476601 C223.26369567 2089.42791083 195.65369341 2089.55101581 168.04364014 2089.70703125 C168.82638306 2090.18175369 169.60912598 2090.65647614 170.41558838 2091.14558411 C173.38387282 2092.94605994 176.3519452 2094.74688443 179.31988525 2096.54792786 C180.59242718 2097.32005564 181.86504795 2098.0920535 183.13775635 2098.86390686 C201.73601413 2110.14343981 220.19693902 2121.48452753 237.88787842 2134.16259766 C239.82917445 2135.55338347 241.77639338 2136.93515183 243.72723389 2138.3125 C247.18161032 2140.75598361 250.61613528 2143.22602657 254.04364014 2145.70703125 C254.76374268 2146.2273291 255.48384521 2146.74762695 256.22576904 2147.28369141 C266.87024559 2154.99298746 277.23168898 2162.95472888 287.36297607 2171.32617188 C289.63052724 2173.1892267 291.92945361 2175.01140461 294.23114014 2176.83203125 C299.6939388 2181.19132634 305.01617712 2185.71314966 310.33172607 2190.24951172 C312.03586905 2191.70041496 313.7462035 2193.14372335 315.45770264 2194.5859375 C323.51635773 2201.40190279 331.26718155 2208.49800819 338.93841553 2215.74536133 C340.47518708 2217.17734085 342.02583484 2218.59447017 343.58441162 2220.00268555 C351.86092698 2227.48767506 359.78505763 2235.29510066 367.66351318 2243.1965332 C369.86656124 2245.40497788 372.07495482 2247.60797676 374.28387451 2249.81054688 C375.71062779 2251.23796049 377.13707108 2252.66568402 378.56317139 2254.09375 C379.21123245 2254.73978683 379.85929352 2255.38582367 380.5269928 2256.05143738 C384.32801786 2259.87174307 387.94786726 2263.80079561 391.46180725 2267.88708496 C394.03061654 2270.84257728 396.73196957 2273.67162754 399.41864014 2276.51953125 C404.14111446 2281.56134768 408.61016164 2286.73067692 412.93035889 2292.125 C415.0798304 2294.75124893 417.31824102 2297.26336578 419.60614014 2299.76953125 C423.98037084 2304.5819405 428.03441678 2309.58903 432.04364014 2314.70703125 C432.82996826 2315.69832031 433.61629639 2316.68960938 434.42645264 2317.7109375 C440.01245057 2324.76127781 445.51079055 2331.87920985 450.98114014 2339.01953125 C451.60053467 2339.82366455 452.2199292 2340.62779785 452.85809326 2341.45629883 C463.48345708 2355.37274077 473.28902134 2369.88240919 482.98114014 2384.45703125 C483.50244507 2385.24006622 484.02375 2386.0231012 484.56085205 2386.8298645 C497.1242557 2405.71650228 508.99379099 2424.89287612 520.04364014 2444.70703125 C520.52123779 2445.56312988 520.99883545 2446.41922852 521.49090576 2447.30126953 C525.06814897 2453.73812901 528.57389378 2460.21165775 532.04364014 2466.70703125 C532.61985107 2467.7842041 533.19606201 2468.86137695 533.78973389 2469.97119141 C571.07037179 2539.9926476 598.37872914 2615.60148281 635.8236084 2815.37677002 C636.04257493 2817.69575012 636.27145953 2820.0136043 636.50115967 2822.33154297 C641.74714771 2876.41948865 641.72242093 2933.11027376 636.296875 2987.1809082 C636.03220109 2989.82114051 635.777617 2992.4622362 635.52362061 2995.10351562 C626.99649246 3082.58414015 606.57516624 3169.0933585 527.5055542 3349.06396484 C526.05359371 3351.68903569 524.63364275 3354.32891394 523.22332764 3356.9765625 C508.82211506 3383.95316823 492.23349783 3409.44853615 475.04364014 3434.70703125 C474.35608643 3435.71830078 473.66853271 3436.72957031 472.96014404 3437.77148438 C464.09528751 3450.75440434 454.67964017 3463.28844297 445.04364014 3475.70703125 C444.50545654 3476.40119141 443.96727295 3477.09535156 443.41278076 3477.81054688 C434.37788097 3489.44020444 425.03342853 3500.80098753 415.48504639 3512.01123047 C414.04164398 3513.70937971 412.60482591 3515.41293318 411.16864014 3517.1171875 C404.35195147 3525.17524304 397.25610648 3532.92620996 390.00921631 3540.59790039 C388.56459045 3542.14803364 387.13451698 3543.71176137 385.71282959 3545.28295898 C378.50495223 3553.24511008 371.01430187 3560.89041444 363.40863037 3568.47241211 C361.34503952 3570.53060282 359.28690338 3572.59414105 357.22918701 3574.65820312 C355.89291924 3575.99381059 354.55634157 3577.32910809 353.21942139 3578.6640625 C352.61713211 3579.26837601 352.01484283 3579.87268951 351.39430237 3580.49531555 C347.68806468 3584.18156698 343.86323629 3587.67938394 339.90032959 3591.0884552 C336.7581374 3593.82767312 333.75609104 3596.71486887 330.73114014 3599.58203125 C325.5089738 3604.49743188 320.19464782 3609.15223221 314.59051514 3613.62890625 C311.97355684 3615.76421578 309.47521235 3617.99233488 306.98114014 3620.26953125 C303.05334296 3623.84025596 299.02125248 3627.20770327 294.85223389 3630.4921875 C292.77082207 3632.13357902 290.70200485 3633.78613145 288.64129639 3635.453125 C268.81408488 3651.47249647 248.14906507 3666.42061458 227.04364014 3680.70703125 C226.13050049 3681.32674805 226.13050049 3681.32674805 225.19891357 3681.95898438 C164.45372938 3723.10789605 98.36785014 3757.22762227 29.46307373 3782.45263672 C26.14674781 3783.66920694 22.83924091 3784.9076314 19.53192139 3786.1484375 C-65.69782708 3817.75476029 -157.25383405 3835.20292129 -247.95635986 3839.70703125 C-248.99373291 3839.76342773 -250.03110596 3839.81982422 -251.09991455 3839.87792969 C-341.75187404 3844.70622504 -433.46722608 3835.66546362 -679.95635986 3759.70703125 C-681.14020264 3759.17223145 -682.32404541 3758.63743164 -683.54376221 3758.08642578 C-707.71149153 3747.11487649 -731.37868006 3735.42739003 -754.37969971 3722.17675781 C-757.4424285 3720.42977777 -760.53447779 3718.74188402 -763.63262939 3717.05883789 C-803.85245032 3695.13788635 -842.26222931 3668.39439018 -877.95635986 3639.70703125 C-878.59670166 3639.19285645 -879.23704346 3638.67868164 -879.89678955 3638.14892578 C-888.47871908 3631.24480703 -896.96898461 3624.24098058 -905.34112549 3617.08398438 C-907.0047053 3615.66581779 -908.67531863 3614.25627808 -910.34698486 3612.84765625 C-918.38252959 3606.05200411 -926.1173064 3598.9825494 -933.76495361 3591.75488281 C-935.92956665 3589.7320693 -938.11688475 3587.73539253 -940.30567932 3585.73883057 C-948.00733275 3578.69385228 -955.42884309 3571.38806759 -962.79718018 3563.99658203 C-964.84649498 3561.94185617 -966.90117249 3559.89260022 -968.95635986 3557.84375 C-970.28741011 3556.5120396 -971.61815048 3555.18001937 -972.94854736 3553.84765625 C-973.54972382 3553.24850403 -974.15090027 3552.64935181 -974.77029419 3552.03204346 C-978.44749535 3548.3347938 -981.93564253 3544.51805018 -985.33654785 3540.56495667 C-988.07631044 3537.42244722 -990.96394507 3534.42006222 -993.83135986 3531.39453125 C-998.64569313 3526.27546126 -1003.23725997 3521.06432239 -1007.62432861 3515.5703125 C-1010.44640352 3512.10535285 -1013.3857602 3508.75439595 -1016.33135986 3505.39453125 C-1021.94173577 3498.96634701 -1027.27105115 3492.36820557 -1032.48028564 3485.61279297 C-1034.07507466 3483.5537584 -1035.68448277 3481.50674235 -1037.29620361 3479.4609375 C-1045.46490324 3469.07051547 -1053.31216069 3458.48823669 -1060.95635986 3447.70703125 C-1061.52354736 3446.91039063 -1062.09073486 3446.11375 -1062.67510986 3445.29296875 C-1086.20655965 3412.20186748 -1107.32701623 3377.4837248 -1126.39483643 3341.64208984 C-1127.41948319 3339.71615123 -1128.44737255 3337.79193352 -1129.4788208 3335.86962891 C-1173.63145461 3253.52511048 -1203.03469374 3162.93535515 -1232.20635986 2975.26953125 C-1232.286604 2974.27646973 -1232.36684814 2973.2834082 -1232.44952393 2972.26025391 C-1232.9770556 2965.06987446 -1233.03433553 2957.91472625 -1232.95635986 2950.70703125 C-1231.76711914 2950.66215576 -1230.57787842 2950.61728027 -1229.3526001 2950.57104492 C-1138.58498739 2947.09651085 -1048.76785276 2935.81066644 -938.22662354 2901.45770264 C-935.97552604 2900.71336862 -933.72292208 2899.97375079 -931.47003174 2899.23486328 C-900.61843097 2889.08997993 -870.51351698 2877.16875284 -840.95635986 2863.70703125 C-839.84776611 2863.20349121 -838.73917236 2862.69995117 -837.59698486 2862.18115234 C-813.36908061 2851.14346782 -789.62030935 2839.47715872 -766.54620361 2826.18554688 C-763.42844051 2824.40564742 -760.28350437 2822.67967116 -757.13214111 2820.96020508 C-738.00576846 2810.49349509 -719.78331631 2798.71747811 -701.64385986 2786.64453125 C-700.75529297 2786.05424133 -699.86672607 2785.46395142 -698.95123291 2784.85577393 C-683.00913676 2774.25137406 -667.39476082 2763.24471815 -652.20635986 2751.58203125 C-651.32931396 2750.91099365 -650.45226807 2750.23995605 -649.54864502 2749.54858398 C-634.91049746 2738.32904653 -620.52858854 2726.84862681 -606.55792236 2714.8046875 C-604.2085301 2712.77959006 -601.84960846 2710.76678395 -599.47979736 2708.765625 C-591.47637315 2701.99254084 -583.76716793 2694.95585514 -576.14776611 2687.75488281 C-573.98315308 2685.7320693 -571.79583498 2683.73539253 -569.60704041 2681.73883057 C-561.90538698 2674.69385228 -554.48387663 2667.38806759 -547.11553955 2659.99658203 C-545.06622475 2657.94185617 -543.01154724 2655.89260022 -540.95635986 2653.84375 C-539.62530961 2652.5120396 -538.29456925 2651.18001937 -536.96417236 2649.84765625 C-536.36299591 2649.24850403 -535.76181946 2648.64935181 -535.14242554 2648.03204346 C-531.46522438 2644.3347938 -527.9770772 2640.51805018 -524.57617188 2636.56495667 C-521.83641801 2633.42245723 -518.94892479 2630.41990686 -516.08135986 2627.39453125 C-511.1717656 2622.17853364 -506.52146412 2616.8709724 -502.05010986 2611.2734375 C-499.1595776 2607.73037837 -496.09099615 2604.36370246 -492.99932861 2600.99609375 C-490.89104871 2598.63385279 -488.912978 2596.19567365 -486.95635986 2593.70703125 C-490.25635986 2593.37703125 -493.55635986 2593.04703125 -496.95635986 2592.70703125 C-497.28635986 2528.35703125 -497.61635986 2464.00703125 -497.95635986 2397.70703125 C-503.40135986 2406.12203125 -503.40135986 2406.12203125 -508.95635986 2414.70703125 C-517.45425928 2427.69770534 -526.03803769 2440.52964035 -535.51641846 2452.82714844 C-537.53550132 2455.46311623 -539.51547875 2458.12758309 -541.49810791 2460.79101562 C-557.37445425 2482.09881068 -574.09503519 2502.81283514 -591.95635986 2522.4921875 C-593.75239515 2524.48115627 -595.5158929 2526.49266319 -597.26885986 2528.51953125 C-608.57226253 2541.4309705 -620.63949391 2553.54640913 -632.78363037 2565.66125488 C-634.6891293 2567.56413794 -636.59088936 2569.47073652 -638.49269485 2571.3773098 C-640.79584828 2573.68497462 -643.10283899 2575.98879564 -645.40948486 2578.29296875 C-646.24924866 2579.13475677 -647.08901245 2579.9765448 -647.95422363 2580.84384155 C-652.26046068 2585.13314365 -656.63176155 2589.27987202 -661.24711609 2593.23590088 C-663.81943593 2595.44987287 -666.28544257 2597.76880619 -668.76885986 2600.08203125 C-673.36814519 2604.33188422 -678.10723926 2608.34279628 -682.98760986 2612.26953125 C-686.47918199 2615.13629573 -689.87153968 2618.10487281 -693.26885986 2621.08203125 C-699.77247491 2626.76062853 -706.45049861 2632.15985997 -713.29180908 2637.42480469 C-714.88371734 2638.65107371 -716.46903329 2639.88588645 -718.05401611 2641.12109375 C-791.81831578 2698.37934912 -874.17053808 2744.84847071 -1197.51885986 2832.95703125 C-1198.64501205 2833.07272964 -1198.64501205 2833.07272964 -1199.79391479 2833.19076538 C-1205.50923769 2833.76947937 -1211.22965915 2834.25575313 -1216.95635986 2834.70703125 C-1218.58097137 2834.83783585 -1218.58097137 2834.83783585 -1220.23840332 2834.97128296 C-1243.11292303 2836.75909826 -1265.92051908 2837.07052406 -1288.85655212 2837.02508926 C-1291.74923763 2837.01944762 -1294.64191727 2837.01662799 -1297.53460693 2837.01400757 C-1324.28056538 2836.97878254 -1350.91359401 2836.76565493 -1377.53881836 2833.96026611 C-1380.08681342 2833.69336638 -1382.63589459 2833.43942106 -1385.18536377 2833.18701172 C-1449.22455473 2826.77620006 -1512.61799294 2814.27432956 -1573.95635986 2794.70703125 C-1574.98735809 2794.37862244 -1574.98735809 2794.37862244 -1576.03918457 2794.0435791 C-1630.32483166 2776.71047791 -1683.98513638 2755.24341291 -1733.95635986 2727.70703125 C-1734.94265381 2727.16933105 -1735.92894775 2726.63163086 -1736.94512939 2726.07763672 C-1770.4583812 2707.79995923 -1802.84108162 2687.83230465 -1833.95635986 2665.70703125 C-1834.79344482 2665.11229004 -1835.63052979 2664.51754883 -1836.49298096 2663.90478516 C-1846.13772431 2657.03495298 -1855.63078569 2650.00429304 -1864.95635986 2642.70703125 C-1866.06036097 2641.8500471 -1867.16453149 2640.99328114 -1868.26885986 2640.13671875 C-1886.12366169 2626.24539161 -1903.49898622 2611.73585859 -1920.07745361 2596.33984375 C-1922.30690594 2594.30096876 -1924.55635855 2592.3027028 -1926.83526611 2590.3203125 C-1938.54189187 2580.10853068 -1949.58818683 2569.17473764 -1960.58135986 2558.20703125 C-1961.09609863 2557.69488068 -1961.6108374 2557.1827301 -1962.14117432 2556.65505981 C-1967.37948288 2551.43756974 -1972.52663389 2546.19116007 -1977.33770752 2540.57080078 C-1980.22666789 2537.24435682 -1983.29467026 2534.08551539 -1986.33135986 2530.89453125 C-1991.41243509 2525.51937049 -1996.2386075 2520.07161504 -2000.84698486 2514.28515625 C-2003.14470291 2511.4768342 -2005.55971134 2508.8123348 -2008.01885986 2506.14453125 C-2011.78743933 2502.04019508 -2015.34778632 2497.84629257 -2018.78839111 2493.46484375 C-2020.3754554 2491.44598359 -2021.97493397 2489.44282849 -2023.59307861 2487.44921875 C-2031.36143122 2477.8607992 -2038.81700054 2468.05414562 -2046.1585083 2458.13574219 C-2047.28145266 2456.61876086 -2048.40671723 2455.1034911 -2049.53546143 2453.59082031 C-2066.21023072 2431.21583519 -2081.66446861 2407.66696659 -2095.95635986 2383.70703125 C-2096.5119458 2382.77697266 -2097.06753174 2381.84691406 -2097.63995361 2380.88867188 C-2105.92669687 2366.96362112 -2113.82718664 2352.85011751 -2121.44219971 2338.54736328 C-2122.87193452 2335.86540023 -2124.31360919 2333.19017883 -2125.75714111 2330.515625 C-2133.43187341 2316.19507449 -2140.2529228 2301.50277374 -2146.95635986 2286.70703125 C-2147.43073486 2285.66562988 -2147.90510986 2284.62422852 -2148.39385986 2283.55126953 C-2184.26593467 2204.55882071 -2207.71889203 2120.44211617 -2225.74346924 1989.95678711 C-2225.95409556 1987.73095969 -2226.17985356 1985.50714307 -2226.40948486 1983.28320312 C-2231.9964372 1928.30416345 -2231.99910111 1870.07129008 -2226.20959473 1815.12457275 C-2225.94269499 1812.5765777 -2225.68874968 1810.02749652 -2225.43634033 1807.47802734 C-2216.71065553 1720.31795035 -2196.35061958 1634.25945218 -2108.6741333 1438.63769531 C-2107.07578046 1435.91077269 -2105.49254584 1433.17550613 -2103.9138031 1430.43719482 C-2095.74153426 1416.26977824 -2087.36571672 1402.28761294 -2078.2756958 1388.68310547 C-2077.13145715 1386.96928836 -2075.99978667 1385.24709276 -2074.87042236 1383.5234375 C-2055.40371267 1353.91268289 -2034.00109789 1325.51525237 -2011.03497314 1298.53735352 C-2008.18068618 1295.17887211 -2005.39687141 1291.77457259 -2002.64385986 1288.33203125 C-1997.77446759 1282.33960797 -1992.48227934 1276.76896629 -1987.18682861 1271.15625 C-1984.77718108 1268.59793526 -1982.43013866 1266.00202118 -1980.14385986 1263.33203125 C-1977.06834952 1259.75297387 -1973.74849265 1256.46059291 -1970.36260986 1253.17578125 C-1968.39072822 1251.15268191 -1966.54519086 1249.09874413 -1964.70245361 1246.9609375 C-1960.82694326 1242.49655765 -1956.70911594 1238.31215769 -1952.51885986 1234.14453125 C-1951.80665283 1233.42845703 -1951.0944458 1232.71238281 -1950.36065674 1231.97460938 C-1946.27705041 1227.89842104 -1942.08774009 1224.01699634 -1937.71783447 1220.25024414 C-1935.52728335 1218.33112097 -1933.4837799 1216.29683345 -1931.45635986 1214.20703125 C-1928.1251518 1210.8360306 -1924.70524358 1207.66189095 -1921.10870361 1204.578125 C-1918.57583824 1202.37623296 -1916.11303464 1200.10507299 -1913.64385986 1197.83203125 C-1909.17762472 1193.75843216 -1904.58714607 1189.89875422 -1899.88214111 1186.10546875 C-1897.23404548 1183.93466672 -1894.64489564 1181.71408502 -1892.06402588 1179.46484375 C-1885.04914607 1173.36030694 -1877.79200722 1167.65884923 -1870.37042236 1162.05859375 C-1867.40041368 1159.81561158 -1864.46070836 1157.54017891 -1861.54229736 1155.23046875 C-1852.45272102 1148.04257338 -1843.18137233 1141.29070432 -1833.55401611 1134.83984375 C-1830.16607663 1132.56091932 -1826.8602515 1130.19068982 -1823.56964111 1127.7734375 C-1818.18778228 1123.83706705 -1812.67763873 1120.14269113 -1807.08135986 1116.51953125 C-1806.08596191 1115.87371094 -1805.09056396 1115.22789063 -1804.06500244 1114.5625 C-1736.81070852 1071.07980937 -1664.91616088 1036.06625051 -1588.95635986 1010.70703125 C-1588.26576477 1010.47604736 -1587.57516968 1010.24506348 -1586.86364746 1010.00708008 C-1511.33340889 984.81643176 -1430.62608317 968.32276781 -1339.95635986 964.70703125 C-1339.91330719 965.65374443 -1339.91330719 965.65374443 -1339.86938477 966.61958313 C-1335.80830905 1055.33385167 -1325.21210118 1142.27258717 -1212.50714111 1436.06298828 C-1210.84803853 1438.8917164 -1209.21338622 1441.73369638 -1207.58135986 1444.578125 C-1190.89004635 1473.58001431 -1172.73266264 1501.70736277 -1152.95635986 1528.70703125 C-1152.1708374 1529.78573486 -1152.1708374 1529.78573486 -1151.3694458 1530.88623047 C-1143.76617428 1541.32305923 -1136.0458329 1551.64173708 -1127.95635986 1561.70703125 C-1127.44218506 1562.34737305 -1126.92801025 1562.98771484 -1126.39825439 1563.64746094 C-1119.49676126 1572.22612679 -1112.49595171 1580.71367326 -1105.34210205 1589.08300781 C-1103.89906895 1590.77417346 -1102.46261169 1592.47077744 -1101.02667236 1594.16796875 C-1095.52288307 1600.65419339 -1089.90872689 1607.00817481 -1084.10723877 1613.22998047 C-1081.47720693 1616.05103476 -1078.89789548 1618.89873239 -1076.39385986 1621.83203125 C-1073.1184751 1625.62795393 -1069.56450631 1629.12677688 -1065.99859619 1632.64550781 C-1063.41415183 1635.20825648 -1060.93521565 1637.80658935 -1058.58135986 1640.58203125 C-1051.6930847 1648.63218415 -1043.98752316 1656.11848639 -1035.91339111 1662.96875 C-1033.49182997 1665.11963764 -1031.23261191 1667.4031464 -1028.95635986 1669.70703125 C-1025.46854773 1673.23194777 -1021.91604412 1676.57671016 -1018.14776611 1679.796875 C-1014.40643682 1683.05803369 -1010.80340229 1686.47320889 -1007.17901611 1689.86328125 C-1006.658086 1690.31245627 -1006.1371559 1690.7616313 -1005.60044003 1691.22441769 C-1003.95635986 1692.70703125 -1003.95635986 1692.70703125 -1002.4252634 1694.48805332 C-996.53671093 1700.42243812 -990.56095842 1700.48946752 -982.66253102 1700.58110917 C-979.62635467 1700.5778413 -976.59164663 1700.54002423 -973.5557251 1700.50170898 C-971.36723392 1700.49973302 -969.17873811 1700.50084562 -966.99024963 1700.50480652 C-961.06494267 1700.50681129 -955.1406318 1700.46571581 -949.21555591 1700.41678882 C-943.0176417 1700.37296863 -936.81970354 1700.36891285 -930.62165833 1700.36061096 C-918.89196994 1700.33887214 -907.16273937 1700.28145271 -895.43325239 1700.21116453 C-886.0590634 1700.15581638 -876.68492308 1700.1175715 -867.31060791 1700.09155273 C-866.6498594 1700.08971367 -865.9891109 1700.08787461 -865.30833971 1700.08597981 C-861.99331222 1700.07684406 -858.678284 1700.06801403 -855.36325538 1700.05929649 C-827.8940366 1699.98616911 -800.42522391 1699.86307913 -772.95635986 1699.70703125 C-773.75841354 1699.22052597 -774.56046722 1698.73402069 -775.38682556 1698.23277283 C-778.40309979 1696.40295972 -781.41919137 1694.57284627 -784.43516541 1692.74253845 C-785.73292516 1691.95504682 -787.03075463 1691.16767004 -788.32865906 1690.38041687 C-822.66090389 1669.55542523 -856.18395807 1647.36392948 -887.36505127 1621.99853516 C-889.63366333 1620.15733267 -891.92032458 1618.33902872 -894.20635986 1616.51953125 C-907.50532388 1605.86723606 -920.55955543 1594.9763956 -933.04229736 1583.375 C-935.30302976 1581.30518736 -937.58346767 1579.27494995 -939.89385986 1577.26171875 C-952.27420145 1566.4613196 -963.8960855 1554.87115677 -975.51885986 1543.26953125 C-976.17888 1542.6120993 -976.83890015 1541.95466736 -977.5189209 1541.27731323 C-990.27900774 1528.55665707 -990.27900774 1528.55665707 -995.50787354 1522.40063477 C-998.01341479 1519.47109833 -1000.6866809 1516.69792334 -1003.33135986 1513.89453125 C-1008.05832362 1508.84792181 -1012.5314513 1503.67368977 -1016.85479736 1498.2734375 C-1018.93637413 1495.73143762 -1021.10674366 1493.3117379 -1023.33135986 1490.89453125 C-1027.31319573 1486.52002299 -1030.97378069 1481.9617405 -1034.59527588 1477.29052734 C-1037.55688531 1473.47379457 -1040.57607944 1469.71471873 -1043.64898682 1465.98706055 C-1051.46206128 1456.4971484 -1058.76589582 1446.67422244 -1065.95635986 1436.70703125 C-1066.67976563 1435.70978027 -1066.67976563 1435.70978027 -1067.41778564 1434.69238281 C-1092.99240193 1399.36175757 -1115.91643405 1362.13518526 -1136.39483643 1323.64208984 C-1137.41948319 1321.71615123 -1138.44737255 1319.79193352 -1139.4788208 1317.86962891 C-1183.63274095 1235.52271147 -1213.03346269 1144.93313038 -1242.95635986 944.70703125 C-1243.08772339 942.80099121 -1243.08772339 942.80099121 -1243.22174072 940.85644531 C-1244.2582706 924.50454271 -1244.14370466 908.11801769 -1244.1416626 891.74072266 C-1244.14158192 888.32660558 -1244.14844369 884.91262437 -1244.16217041 881.49853516 C-1244.25310237 858.49070979 -1243.67620301 835.65377968 -1241.95635986 812.70703125 C-1241.88065765 811.69499634 -1241.80495544 810.68296143 -1241.72695923 809.64025879 C-1241.28969815 803.96756758 -1240.77619768 798.30533692 -1240.20635986 792.64453125 C-1240.12399078 791.81214935 -1240.0416217 790.97976746 -1239.95675659 790.12216187 C-1231.07549087 701.21704561 -1209.5202407 612.98279707 -1171.95635986 522.70703125 C-1171.69530457 522.09442444 -1171.43424927 521.48181763 -1171.1652832 520.85064697 C-1163.92160404 503.90461187 -1156.06829959 487.2522003 -1147.95635986 470.70703125 C-1147.40190186 469.57088379 -1146.84744385 468.43473633 -1146.27618408 467.26416016 C-1138.36537619 451.08752929 -1130.03851675 435.25566343 -1120.95635986 419.70703125 C-1120.34034912 418.64661621 -1119.72433838 417.58620117 -1119.08966064 416.49365234 C-1104.74946546 391.84813209 -1089.4805059 367.94531592 -1072.95635986 344.70703125 C-1072.36161865 343.86994629 -1071.76687744 343.03286133 -1071.15411377 342.17041016 C-1064.28439625 332.52582777 -1057.2557289 323.03078948 -1049.95635986 313.70703125 C-1049.0409533 312.53258481 -1048.12559004 311.3581046 -1047.21026611 310.18359375 C-1038.51501859 299.049509 -1029.55351152 288.15232327 -1020.39337158 277.3984375 C-1018.96236985 275.71410518 -1017.53898952 274.02356845 -1016.11651611 272.33203125 C-1009.60613762 264.6232413 -1002.83321144 257.20724364 -995.88995361 249.88671875 C-992.84933379 246.67940263 -989.87707584 243.41555701 -986.90948486 240.140625 C-980.8583653 233.49996792 -974.53824423 227.13724092 -968.17584229 220.79614258 C-966.25710482 218.88280931 -964.34383232 216.96412621 -962.43096924 215.04492188 C-956.98645077 209.59745087 -951.56232814 204.18675911 -945.69000244 199.19555664 C-942.57249806 196.51883164 -939.62541638 193.65806279 -936.64385986 190.83203125 C-931.41687326 185.91209352 -926.09773125 181.25328443 -920.48760986 176.7734375 C-917.95497833 174.70590343 -915.54904826 172.54589784 -913.14385986 170.33203125 C-908.68514854 166.26902172 -904.02312581 162.54894673 -899.25860596 158.85717773 C-895.51764771 155.95352952 -891.87251002 152.96897404 -888.26885986 149.89453125 C-880.14875018 143.07924663 -871.53292769 136.92994992 -862.95635986 130.70703125 C-861.40287475 129.57435547 -859.8494871 128.44154602 -858.29620361 127.30859375 C-790.97489013 78.31938066 -716.99754581 37.50907954 0 0 Z " fill="#FF8506" transform="translate(2228.9563598632813,51.29296875)"/>
<path d="M0 0 C34.66673001 -0.39054786 69.33295116 -0.68938489 104.00141205 -0.8681106 C108.10991305 -0.88936834 112.21840973 -0.91137223 116.3269043 -0.93383789 C117.55360831 -0.94052681 117.55360831 -0.94052681 118.80509422 -0.94735085 C131.98436292 -1.02098665 145.1623493 -1.15483054 158.34086152 -1.31159753 C171.89994014 -1.47152604 185.45835519 -1.56519693 199.01833802 -1.59950441 C206.62002297 -1.62058136 214.21902877 -1.67098797 221.81975365 -1.79741096 C281.71982883 -2.76499746 281.71982883 -2.76499746 302.55692482 14.96348763 C306.18797136 17.99027586 310.15719435 20.36340971 314.1875 22.8125 C316.14532016 24.0913426 318.08999113 25.3880729 320.03417969 26.6875 C322.12341472 28.0823991 324.22126946 29.4636595 326.3203125 30.84375 C349.2113382 45.9401162 371.62166818 61.81824298 393 79 C393.9605127 79.77126221 393.9605127 79.77126221 394.94042969 80.55810547 C403.52235922 87.46222422 412.01262475 94.46605067 420.38476562 101.62304688 C422.04834543 103.04121346 423.71895876 104.45075317 425.390625 105.859375 C433.45739411 112.68160879 441.21609362 119.78394069 448.89477539 127.03833008 C450.43154694 128.4703096 451.9821947 129.88743892 453.54077148 131.2956543 C461.81728684 138.78064381 469.74141749 146.58806941 477.61987305 154.48950195 C479.8229211 156.69794663 482.03131469 158.90094551 484.24023438 161.10351562 C485.66698765 162.53092924 487.09343095 163.95865277 488.51953125 165.38671875 C489.49162285 166.355774 489.49162285 166.355774 490.48335266 167.34440613 C494.28437772 171.16471182 497.90422713 175.09376436 501.41816711 179.18005371 C503.98697641 182.13554603 506.68832943 184.96459629 509.375 187.8125 C514.09747432 192.85431643 518.5665215 198.02364567 522.88671875 203.41796875 C525.03619026 206.04421768 527.27460088 208.55633453 529.5625 211.0625 C533.9367307 215.87490925 537.99077664 220.88199875 542 226 C543.17949219 227.48693359 543.17949219 227.48693359 544.3828125 229.00390625 C549.96881043 236.05424656 555.46715041 243.1721786 560.9375 250.3125 C561.55689453 251.1166333 562.17628906 251.9207666 562.81445312 252.74926758 C573.43981694 266.66570952 583.2453812 281.17537794 592.9375 295.75 C593.45880493 296.53303497 593.98010986 297.31606995 594.51721191 298.12283325 C607.08061556 317.00947103 618.95015085 336.18584487 630 356 C630.71639648 357.28414795 630.71639648 357.28414795 631.44726562 358.59423828 C635.02450883 365.03109776 638.53025365 371.5046265 642 378 C642.86431641 379.61575928 642.86431641 379.61575928 643.74609375 381.26416016 C681.02673165 451.28561635 708.33508901 526.89445156 745.77996826 726.66973877 C745.9989348 728.98871887 746.2278194 731.30657305 746.45751953 733.62451172 C751.70350757 787.7124574 751.67878079 844.40324251 746.25323486 898.47387695 C745.98856095 901.11410926 745.73397686 903.75520495 745.47998047 906.39648438 C736.95285232 993.8771089 716.5315261 1080.38632725 637.46191406 1260.35693359 C636.00995357 1262.98200444 634.59000262 1265.62188269 633.1796875 1268.26953125 C618.77847492 1295.24613698 602.18985769 1320.7415049 585 1346 C584.31244629 1347.01126953 583.62489258 1348.02253906 582.91650391 1349.06445312 C574.05164737 1362.04737309 564.63600003 1374.58141172 555 1387 C554.46181641 1387.69416016 553.92363281 1388.38832031 553.36914062 1389.10351562 C544.33424083 1400.73317319 534.9897884 1412.09395628 525.44140625 1423.30419922 C523.99800384 1425.00234846 522.56118577 1426.70590193 521.125 1428.41015625 C514.30831134 1436.46821179 507.21246634 1444.21917871 499.96557617 1451.89086914 C498.52095031 1453.44100239 497.09087684 1455.00473012 495.66918945 1456.57592773 C488.46131209 1464.53807883 480.97066173 1472.18338319 473.36499023 1479.76538086 C471.30139939 1481.82357157 469.24326325 1483.8871098 467.18554688 1485.95117188 C465.8492791 1487.28677934 464.51270143 1488.62207684 463.17578125 1489.95703125 C462.57349197 1490.56134476 461.9712027 1491.16565826 461.35066223 1491.7882843 C457.64442454 1495.47453573 453.81959615 1498.97235269 449.85668945 1502.38142395 C446.71449726 1505.12064187 443.71245091 1508.00783762 440.6875 1510.875 C435.46533366 1515.79040063 430.15100768 1520.44520096 424.546875 1524.921875 C421.9299167 1527.05718453 419.43157221 1529.28530363 416.9375 1531.5625 C413.00970282 1535.13322471 408.97761234 1538.50067202 404.80859375 1541.78515625 C402.72718193 1543.42654777 400.65836472 1545.0791002 398.59765625 1546.74609375 C378.77044475 1562.76546522 358.10542493 1577.71358333 337 1592 C336.39124023 1592.41314453 335.78248047 1592.82628906 335.15527344 1593.25195312 C274.41008924 1634.4008648 208.32421 1668.52059102 139.41943359 1693.74560547 C136.10310768 1694.96217569 132.79560077 1696.20060015 129.48828125 1697.44140625 C44.25853279 1729.04772904 -47.29747418 1746.49589004 -138 1751 C-139.03737305 1751.05639648 -140.07474609 1751.11279297 -141.14355469 1751.17089844 C-231.79551418 1755.99919379 -323.51086622 1746.95843237 -570 1671 C-571.77576416 1670.19780029 -571.77576416 1670.19780029 -573.58740234 1669.37939453 C-597.75513167 1658.40784524 -621.42232019 1646.72035878 -644.42333984 1633.46972656 C-647.48606864 1631.72274652 -650.57811793 1630.03485277 -653.67626953 1628.35180664 C-693.89609045 1606.4308551 -732.30586944 1579.68735893 -768 1551 C-768.6403418 1550.4858252 -769.28068359 1549.97165039 -769.94042969 1549.44189453 C-778.52235922 1542.53777578 -787.01262475 1535.53394933 -795.38476562 1528.37695312 C-797.04834543 1526.95878654 -798.71895876 1525.54924683 -800.390625 1524.140625 C-808.42616972 1517.34497286 -816.16094654 1510.27551815 -823.80859375 1503.04785156 C-825.97320678 1501.02503805 -828.16052488 1499.02836128 -830.34931946 1497.03179932 C-838.05097288 1489.98682103 -845.47248323 1482.68103634 -852.84082031 1475.28955078 C-854.89013511 1473.23482492 -856.94481263 1471.18556897 -859 1469.13671875 C-860.33105025 1467.80500835 -861.66179061 1466.47298812 -862.9921875 1465.140625 C-863.59336395 1464.54147278 -864.19454041 1463.94232056 -864.81393433 1463.32501221 C-868.49113549 1459.62776255 -871.97928266 1455.81101893 -875.38018799 1451.85792542 C-878.11995058 1448.71541597 -881.00758521 1445.71303097 -883.875 1442.6875 C-888.68933327 1437.56843001 -893.28090011 1432.35729114 -897.66796875 1426.86328125 C-900.49004366 1423.3983216 -903.42940033 1420.0473647 -906.375 1416.6875 C-911.9853759 1410.25931576 -917.31469129 1403.66117432 -922.52392578 1396.90576172 C-924.11871479 1394.84672715 -925.72812291 1392.7997111 -927.33984375 1390.75390625 C-935.50854338 1380.36348422 -943.35580083 1369.78120544 -951 1359 C-951.5671875 1358.20335938 -952.134375 1357.40671875 -952.71875 1356.5859375 C-976.25019979 1323.49483623 -997.37065636 1288.77669355 -1016.43847656 1252.93505859 C-1017.46312333 1251.00911998 -1018.49101268 1249.08490227 -1019.52246094 1247.16259766 C-1063.67509475 1164.81807923 -1093.07833388 1074.2283239 -1122.25 886.5625 C-1122.33024414 885.56943848 -1122.41048828 884.57637695 -1122.49316406 883.55322266 C-1123.02069574 876.36284321 -1123.07797566 869.207695 -1123 862 C-1121.81075928 861.95512451 -1120.62151855 861.91024902 -1119.39624023 861.86401367 C-1028.62862753 858.3894796 -938.81149289 847.10363519 -828.27026367 812.75067139 C-826.01916617 812.00633737 -823.76656221 811.26671954 -821.51367188 810.52783203 C-790.66207111 800.38294868 -760.55715711 788.46172159 -731 775 C-729.33710937 774.24468994 -729.33710937 774.24468994 -727.640625 773.47412109 C-703.41272075 762.43643657 -679.66394949 750.77012747 -656.58984375 737.47851562 C-653.47208064 735.69861617 -650.32714451 733.97263991 -647.17578125 732.25317383 C-628.04940859 721.78646384 -609.82695645 710.01044686 -591.6875 697.9375 C-590.79893311 697.34721008 -589.91036621 696.75692017 -588.99487305 696.14874268 C-573.05277689 685.54434281 -557.43840095 674.5376869 -542.25 662.875 C-541.3729541 662.2039624 -540.4959082 661.5329248 -539.59228516 660.84155273 C-524.9541376 649.62201528 -510.57222867 638.14159556 -496.6015625 626.09765625 C-494.25217024 624.07255881 -491.8932486 622.0597527 -489.5234375 620.05859375 C-481.52001328 613.28550959 -473.81080807 606.24882389 -466.19140625 599.04785156 C-464.02679322 597.02503805 -461.83947512 595.02836128 -459.65068054 593.03179932 C-451.94902712 585.98682103 -444.52751677 578.68103634 -437.15917969 571.28955078 C-435.10986489 569.23482492 -433.05518737 567.18556897 -431 565.13671875 C-429.66894975 563.80500835 -428.33820939 562.47298812 -427.0078125 561.140625 C-426.40663605 560.54147278 -425.80545959 559.94232056 -425.18606567 559.32501221 C-421.50886451 555.62776255 -418.02071734 551.81101893 -414.61981201 547.85792542 C-411.88005815 544.71542598 -408.99256493 541.71287561 -406.125 538.6875 C-401.21413565 533.47015304 -396.56335488 528.16063684 -392.08984375 522.5625 C-389.23008666 519.05595673 -386.19775399 515.72125389 -383.140625 512.38671875 C-380.87587921 509.99947165 -380.87587921 509.99947165 -379.0633812 506.89703655 C-377.32743373 504.83419295 -376.36198444 504.08790636 -373.71782732 503.44578421 C-370.74559092 503.23314345 -367.82498641 503.21704914 -364.84527588 503.26069641 C-363.1356423 503.25005631 -363.1356423 503.25005631 -361.39147067 503.23920125 C-357.56287322 503.22260039 -353.73575545 503.24880972 -349.90722656 503.2746582 C-347.16561289 503.27474902 -344.42404736 503.26575205 -341.68244934 503.25704956 C-335.77181054 503.24290578 -329.86151593 503.25035687 -323.95090485 503.27211952 C-315.38670221 503.30335403 -306.82280785 503.2985985 -298.25857338 503.28457632 C-284.33917064 503.26248428 -270.41989058 503.26494448 -256.50048828 503.28491211 C-255.66741232 503.28610144 -254.83433635 503.28729076 -253.97601566 503.28851613 C-253.14197087 503.28970829 -252.30792608 503.29090045 -251.44860721 503.29212874 C-239.65372572 503.30893671 -227.85885798 503.31999643 -216.06396484 503.32397461 C-215.23554456 503.32426016 -214.40712427 503.32454572 -213.55360034 503.32483993 C-199.70052831 503.32912017 -185.84747802 503.32124119 -171.99441314 503.30727643 C-163.46221133 503.29945345 -154.93017498 503.3038672 -146.39799359 503.32453301 C-140.53806493 503.33822847 -134.67818893 503.34163542 -128.8182461 503.33725516 C-125.44594241 503.33517023 -122.07398776 503.33963396 -118.70169258 503.35424232 C-84.4874353 503.49640937 -55.12816698 496.82564699 -29.875 472.375 C-9.20716724 451.542924 -0.68298484 423.80743765 -0.7215271 395.03608704 C-0.71651761 393.327173 -0.71063991 391.61826133 -0.70397437 389.90935296 C-0.68823939 385.23674512 -0.68474728 380.56419752 -0.68332577 375.8915664 C-0.67962033 370.84397887 -0.66445916 365.79642395 -0.65071106 360.74885559 C-0.6284703 352.01132361 -0.61343788 343.27380329 -0.60334396 334.53624916 C-0.58873949 321.90331862 -0.56319769 309.27042868 -0.53501268 296.637522 C-0.48957682 276.13995056 -0.45294876 255.64237327 -0.421875 235.14477539 C-0.39167632 215.23688733 -0.35731999 195.32901359 -0.31738281 175.42114258 C-0.31492126 174.19339036 -0.31245972 172.96563814 -0.30992357 171.70068131 C-0.29754872 165.54122079 -0.28509223 159.38176044 -0.27259517 153.22230017 C-0.16907539 102.1482201 -0.0798563 51.07412217 0 0 Z " fill="#FF8506" transform="translate(2119,2140)"/>
<path d="M0 0 C1.95590926 0.6766793 3.91330159 1.34885692 5.87127686 2.01953125 C61.01453319 20.97063022 115.24360066 46.09594229 165.3180542 76.07666016 C167.90532737 77.62429633 170.50039981 79.15783601 173.09832764 80.6875 C193.64850969 92.83515912 213.64065656 105.80236413 233.04364014 119.70703125 C233.83383545 120.2705127 234.62403076 120.83399414 235.43817139 121.41455078 C245.124476 128.32456391 254.67457591 135.37219313 264.04364014 142.70703125 C265.21808658 143.62243782 266.39256678 144.53780107 267.56707764 145.453125 C278.6995099 154.147082 289.59531632 163.10710813 300.34783936 172.265625 C302.0459886 173.70902741 303.74954206 175.14584548 305.45379639 176.58203125 C312.32327225 182.39354371 319.00341143 188.36700976 325.54315186 194.5480957 C328.77737466 197.60435888 332.05106682 200.59488599 335.39129639 203.53515625 C342.64912611 210.04737512 349.48328734 216.99767334 356.36712646 223.90014648 C358.73278203 226.27117688 361.10375528 228.63679547 363.47528076 231.00195312 C365.0022943 232.52962729 366.52899771 234.05761153 368.05535889 235.5859375 C369.10248299 236.63002525 369.10248299 236.63002525 370.17076111 237.69520569 C374.09744979 241.64042584 377.85258289 245.68207369 381.47966003 249.90493774 C384.04076746 252.85596957 386.73775927 255.67776469 389.41864014 258.51953125 C394.14111446 263.56134768 398.61016164 268.73067692 402.93035889 274.125 C405.0798304 276.75124893 407.31824102 279.26336578 409.60614014 281.76953125 C413.98032888 286.58189434 418.03505032 291.58859507 422.04364014 296.70703125 C422.87262332 297.75555944 423.70207417 298.803718 424.53192139 299.8515625 C441.24128505 320.98399301 457.14842657 342.5667699 472.04364014 365.01953125 C472.60980042 365.87109802 473.17596069 366.72266479 473.75927734 367.60003662 C486.58671071 386.90288527 498.75259239 406.46036827 510.04364014 426.70703125 C510.76003662 427.9911792 510.76003662 427.9911792 511.49090576 429.30126953 C515.06814897 435.73812901 518.57389378 442.21165775 522.04364014 448.70703125 C522.90795654 450.32279053 522.90795654 450.32279053 523.78973389 451.97119141 C561.15569391 522.1529018 588.33273277 597.83567936 627.29364014 813.08203125 C627.37396484 814.0671167 627.45428955 815.05220215 627.53704834 816.06713867 C628.09248914 823.61764178 628.11883679 831.13862716 628.04364014 838.70703125 C626.85439941 838.75190674 625.66515869 838.79678223 624.43988037 838.84301758 C532.76990286 842.35209367 442.68702241 854.20555072 331.04364014 888.70703125 C330.32817017 888.94143921 329.6127002 889.17584717 328.87554932 889.4173584 C246.77561308 916.3182668 168.66958949 954.92818058 96.79364014 1002.76953125 C95.6632431 1003.52120071 95.6632431 1003.52120071 94.51000977 1004.28805542 C79.81883828 1014.06982332 65.27275312 1024.0487414 51.29364014 1034.83203125 C50.40950439 1035.51015869 49.52536865 1036.18828613 48.61444092 1036.88696289 C46.87462514 1038.22194487 45.135803 1039.55822314 43.39813232 1040.89599609 C41.33857503 1042.48017237 39.2747196 1044.058392 37.20770264 1045.6328125 C27.52642327 1053.01653176 18.14747418 1060.73513792 8.87738037 1068.62524414 C5.4953318 1071.49890962 2.06900568 1074.30563685 -1.39385986 1077.08203125 C-6.40811011 1081.15794227 -11.13678273 1085.49555919 -15.83502197 1089.92724609 C-18.81858297 1092.73968015 -21.83573522 1095.49572562 -24.92901611 1098.1875 C-37.32652628 1108.97696492 -48.95398258 1120.60248012 -60.58135986 1132.20703125 C-61.49697693 1133.11876602 -61.49697693 1133.11876602 -62.43109131 1134.04891968 C-71.17543545 1142.76033707 -71.17543545 1142.76033707 -79.43048096 1151.93164062 C-82.1691432 1155.11812892 -85.0751624 1158.14989802 -87.95635986 1161.20703125 C-92.72292836 1166.29307318 -97.43044972 1171.4044289 -101.95635986 1176.70703125 C-102.92483219 1177.8335721 -103.89361312 1178.95984769 -104.86260986 1180.0859375 C-106.93975086 1182.5025199 -109.01626393 1184.91962924 -111.08917236 1187.33984375 C-111.52116943 1187.84402832 -111.9531665 1188.34821289 -112.39825439 1188.86767578 C-114.13393819 1190.82354311 -114.13393819 1190.82354311 -115.84834194 1193.77620506 C-117.60647114 1195.85993394 -118.58837897 1196.61848315 -121.26351845 1197.26220822 C-124.27100146 1197.47087689 -127.22818055 1197.48511404 -130.24275208 1197.43960571 C-131.97371192 1197.44918747 -131.97371192 1197.44918747 -133.73964065 1197.4589628 C-136.93969513 1197.47073007 -140.1383325 1197.45565067 -143.3382591 1197.42933178 C-146.79123662 1197.40751678 -150.24410238 1197.42041181 -153.69711304 1197.429245 C-159.68305478 1197.43997835 -165.66864781 1197.42922267 -171.65454292 1197.40434647 C-180.33086805 1197.36867692 -189.00689 1197.36996802 -197.68326735 1197.3809443 C-211.78891087 1197.39815808 -225.89443123 1197.39154943 -240.00006104 1197.3671875 C-240.84431253 1197.36573586 -241.68856402 1197.36428423 -242.55839889 1197.3627886 C-245.97776183 1197.35687714 -249.39712468 1197.3509241 -252.81648744 1197.34491251 C-262.19668488 1197.32865517 -271.57688567 1197.3170594 -280.95709229 1197.30761719 C-282.21510037 1197.30634075 -282.21510037 1197.30634075 -283.49852277 1197.30503853 C-297.53354356 1197.29137294 -311.56852809 1197.29373497 -325.60354942 1197.30566633 C-334.24480221 1197.31211613 -342.88579014 1197.30343832 -351.52699863 1197.27458178 C-357.46545083 1197.25554031 -363.4038092 1197.25061064 -369.3422888 1197.25627472 C-372.757584 1197.25898998 -376.17226966 1197.25309578 -379.58754921 1197.23358345 C-414.29591637 1197.04384469 -441.87055274 1204.35052623 -467.51885986 1228.89453125 C-488.02833962 1249.89577568 -496.44915392 1277.24043994 -496.35508728 1306.03170776 C-496.3605375 1307.74321278 -496.3672935 1309.45471404 -496.37522918 1311.16620934 C-496.3931392 1315.83207143 -496.39271168 1320.49777342 -496.38909972 1325.16366172 C-496.388473 1330.20916002 -496.40512267 1335.25460593 -496.4196167 1340.30007935 C-496.4423555 1349.029381 -496.45427965 1357.75864286 -496.45874596 1366.48797226 C-496.46521919 1379.10892691 -496.48817721 1391.72980979 -496.51508925 1404.35073544 C-496.55831336 1424.83000492 -496.58830509 1445.30927137 -496.60992432 1465.78857422 C-496.63094713 1485.67595915 -496.6582336 1505.56331931 -496.69390869 1525.45068359 C-496.69610752 1526.67764764 -496.69830634 1527.90461169 -496.7005718 1529.16875647 C-496.71164178 1535.32440513 -496.72283452 1541.48005357 -496.7340883 1547.63570189 C-496.82721143 1598.65945643 -496.89883811 1649.68322501 -496.95635986 1700.70703125 C-531.36829865 1701.09759323 -565.77972471 1701.39642314 -600.19340737 1701.57514185 C-604.27186585 1701.59639954 -608.35031998 1701.61840344 -612.42877197 1701.64086914 C-613.24059342 1701.64532842 -614.05241486 1701.6497877 -614.88883696 1701.6543821 C-627.9711129 1701.72801463 -641.0520968 1701.86185657 -654.13361057 1702.01862878 C-667.59324749 1702.17856667 -681.05221588 1702.27223009 -694.5127638 1702.30653566 C-702.05856659 1702.32761111 -709.6016699 1702.37801078 -717.14650536 1702.50444221 C-776.51718725 1703.47037659 -776.51718725 1703.47037659 -797.35489845 1685.84443474 C-801.62434835 1682.33658447 -806.32994116 1679.54940951 -811.01885986 1676.64453125 C-813.35222729 1675.11449249 -815.67344654 1673.56772782 -817.99346924 1672.01757812 C-819.66774892 1670.89972572 -821.35028595 1669.79425731 -823.03448486 1668.69140625 C-845.17727995 1654.14042662 -866.80875334 1638.72080334 -887.36505127 1621.99853516 C-889.63366333 1620.15733267 -891.92032458 1618.33902872 -894.20635986 1616.51953125 C-907.50532388 1605.86723606 -920.55955543 1594.9763956 -933.04229736 1583.375 C-935.30302976 1581.30518736 -937.58346767 1579.27494995 -939.89385986 1577.26171875 C-952.27420145 1566.4613196 -963.8960855 1554.87115677 -975.51885986 1543.26953125 C-976.17888 1542.6120993 -976.83890015 1541.95466736 -977.5189209 1541.27731323 C-990.27900774 1528.55665707 -990.27900774 1528.55665707 -995.50787354 1522.40063477 C-998.01341479 1519.47109833 -1000.6866809 1516.69792334 -1003.33135986 1513.89453125 C-1008.05832362 1508.84792181 -1012.5314513 1503.67368977 -1016.85479736 1498.2734375 C-1018.93637413 1495.73143762 -1021.10674366 1493.3117379 -1023.33135986 1490.89453125 C-1027.31319573 1486.52002299 -1030.97378069 1481.9617405 -1034.59527588 1477.29052734 C-1037.55688531 1473.47379457 -1040.57607944 1469.71471873 -1043.64898682 1465.98706055 C-1051.46206128 1456.4971484 -1058.76589582 1446.67422244 -1065.95635986 1436.70703125 C-1066.67976563 1435.70978027 -1066.67976563 1435.70978027 -1067.41778564 1434.69238281 C-1092.99240193 1399.36175757 -1115.91643405 1362.13518526 -1136.39483643 1323.64208984 C-1137.41948319 1321.71615123 -1138.44737255 1319.79193352 -1139.4788208 1317.86962891 C-1183.63274095 1235.52271147 -1213.03346269 1144.93313038 -1242.95635986 944.70703125 C-1243.04393555 943.43633789 -1243.13151123 942.16564453 -1243.22174072 940.85644531 C-1244.2582706 924.50454271 -1244.14370466 908.11801769 -1244.1416626 891.74072266 C-1244.14158192 888.32660558 -1244.14844369 884.91262437 -1244.16217041 881.49853516 C-1244.25310237 858.49070979 -1243.67620301 835.65377968 -1241.95635986 812.70703125 C-1241.84280655 811.18897888 -1241.84280655 811.18897888 -1241.72695923 809.64025879 C-1241.28969815 803.96756758 -1240.77619768 798.30533692 -1240.20635986 792.64453125 C-1240.12399078 791.81214935 -1240.0416217 790.97976746 -1239.95675659 790.12216187 C-1231.07549087 701.21704561 -1209.5202407 612.98279707 -1171.95635986 522.70703125 C-1171.69530457 522.09442444 -1171.43424927 521.48181763 -1171.1652832 520.85064697 C-1163.92160404 503.90461187 -1156.06829959 487.2522003 -1147.95635986 470.70703125 C-1147.40190186 469.57088379 -1146.84744385 468.43473633 -1146.27618408 467.26416016 C-1138.36537619 451.08752929 -1130.03851675 435.25566343 -1120.95635986 419.70703125 C-1120.03234375 418.11640869 -1120.03234375 418.11640869 -1119.08966064 416.49365234 C-1104.74946546 391.84813209 -1089.4805059 367.94531592 -1072.95635986 344.70703125 C-1072.36161865 343.86994629 -1071.76687744 343.03286133 -1071.15411377 342.17041016 C-1064.28439625 332.52582777 -1057.2557289 323.03078948 -1049.95635986 313.70703125 C-1049.0409533 312.53258481 -1048.12559004 311.3581046 -1047.21026611 310.18359375 C-1038.51501859 299.049509 -1029.55351152 288.15232327 -1020.39337158 277.3984375 C-1018.96236985 275.71410518 -1017.53898952 274.02356845 -1016.11651611 272.33203125 C-1009.60613762 264.6232413 -1002.83321144 257.20724364 -995.88995361 249.88671875 C-992.84933379 246.67940263 -989.87707584 243.41555701 -986.90948486 240.140625 C-980.8583653 233.49996792 -974.53824423 227.13724092 -968.17584229 220.79614258 C-966.25710482 218.88280931 -964.34383232 216.96412621 -962.43096924 215.04492188 C-956.98645077 209.59745087 -951.56232814 204.18675911 -945.69000244 199.19555664 C-942.57249806 196.51883164 -939.62541638 193.65806279 -936.64385986 190.83203125 C-931.41687326 185.91209352 -926.09773125 181.25328443 -920.48760986 176.7734375 C-917.95497833 174.70590343 -915.54904826 172.54589784 -913.14385986 170.33203125 C-908.68514854 166.26902172 -904.02312581 162.54894673 -899.25860596 158.85717773 C-895.51764771 155.95352952 -891.87251002 152.96897404 -888.26885986 149.89453125 C-880.14875018 143.07924663 -871.53292769 136.92994992 -862.95635986 130.70703125 C-861.40287475 129.57435547 -859.8494871 128.44154602 -858.29620361 127.30859375 C-790.97489013 78.31938066 -716.99754581 37.50907954 0 0 Z " fill="#1A341A" transform="translate(2228.9563598632813,51.29296875)"/>
<path d="M0 0 C2.88986466 0.00543382 5.77972114 0.0078055 8.66959 0.00987244 C35.49378454 0.0397779 62.18087214 0.33565241 88.88769913 3.09324646 C91.12686836 3.32074902 93.36702813 3.53249228 95.60815811 3.73973083 C181.40563262 11.71936563 266.48708053 32.11243049 403.25787735 88.45652771 C405.03676148 89.28901363 406.81730441 90.11795213 408.59790421 90.94676208 C422.48156811 97.42485815 436.01968787 104.369331 449.40112686 111.8266449 C452.10656796 113.32237573 454.82576346 114.78919674 457.55151749 116.24754333 C471.03128637 123.47215167 484.12681957 131.21837029 497.09839249 139.31785583 C498.03747452 139.90357361 498.97655655 140.48929138 499.94409561 141.09275818 C517.74597376 152.22969681 535.11804235 163.96534703 552.09839249 176.31785583 C552.83057999 176.85023865 553.56276749 177.38262146 554.31714249 177.93113708 C564.74048076 185.52577336 575.04557302 193.23840871 585.09839249 201.31785583 C585.73873428 201.83203064 586.37907608 202.34620544 587.03882217 202.8759613 C595.62238362 209.78139292 604.11400852 216.78672786 612.48755264 223.94529724 C614.13733932 225.35104152 615.79493993 226.74712692 617.45386124 228.14207458 C625.83249695 235.21612374 633.84997978 242.62408129 641.80542374 250.16844177 C644.04859981 252.2711805 646.31446246 254.34776589 648.58382034 256.42216492 C655.64029238 262.88434635 662.47715217 269.54151484 669.23022842 276.31932068 C670.98982728 278.08434127 672.75479646 279.84386716 674.52026749 281.60301208 C679.69369279 286.77339851 684.79388535 291.94552829 689.54126358 297.51560974 C692.40260728 300.82737506 695.45688895 303.96056356 698.47339249 307.13035583 C703.57935486 312.53217069 708.43573097 318.00657561 713.06714249 323.82176208 C715.12055418 326.34508915 717.27027306 328.73717857 719.47339249 331.13035583 C723.45522835 335.5048641 727.11581332 340.06314658 730.7373085 344.73435974 C733.69891793 348.55109251 736.71811207 352.31016835 739.79101944 356.03782654 C747.6040939 365.52773869 754.90792844 375.35066465 762.09839249 385.31785583 C762.82179825 386.31510681 762.82179825 386.31510681 763.55981827 387.33250427 C789.79774606 423.57947602 813.12161561 461.81387235 834.09839249 501.31785583 C834.65494522 502.35716248 835.21149796 503.39646912 835.78491592 504.4672699 C845.72514439 523.06054379 854.63000167 542.01978 863.09839249 561.31785583 C863.52024826 562.27631409 863.52024826 562.27631409 863.95062637 563.25413513 C883.98419903 608.82230847 899.83927159 656.0978096 912.09839249 704.31785583 C912.39133194 705.46804199 912.39133194 705.46804199 912.69018936 706.64146423 C925.48539513 757.04915506 933.99866398 808.46671333 938.09839249 860.31785583 C938.19603897 861.55116638 938.29368546 862.78447693 938.39429092 864.05516052 C940.00823205 885.12334145 940.70549706 906.19699803 941.09839249 927.31785583 C941.1254628 928.73832214 941.1254628 928.73832214 941.15307999 930.18748474 C941.24064632 935.5673411 941.1966512 940.93842958 941.09839249 946.31785583 C941.08050674 947.46753845 941.062621 948.61722107 941.04419327 949.80174255 C939.50295587 1040.0822542 925.87614534 1129.88136323 865.09839249 1307.31785583 C864.62562881 1308.42564392 864.15286514 1309.53343201 863.6657753 1310.67478943 C850.06197238 1342.36914986 834.67383759 1373.63616663 817.09839249 1403.31785583 C816.01398151 1405.17920759 814.93068053 1407.04120639 813.84839249 1408.90379333 C794.56846454 1441.95712896 773.24716785 1473.74927079 749.85962296 1504.03367615 C748.33915872 1506.00560065 746.82708027 1507.98334245 745.32104874 1509.96629333 C735.49472331 1522.86633158 725.17958468 1535.34879384 714.56909561 1547.60887146 C713.1047436 1549.31047572 711.65435454 1551.0230098 710.20776749 1552.73973083 C703.07602849 1561.18382476 695.61734722 1569.27072941 688.01294327 1577.2900238 C686.13362868 1579.28053476 684.26803071 1581.28292088 682.40698624 1583.29051208 C675.77426381 1590.43797883 669.04363561 1597.47270259 662.16089249 1604.38035583 C661.47527237 1605.07056824 660.78965225 1605.76078064 660.08325577 1606.47190857 C656.133977 1610.40920821 652.06790096 1614.14532061 647.84619522 1617.78831482 C645.8363484 1619.54717644 643.95320295 1621.39680214 642.09839249 1623.31785583 C638.94859219 1626.51046895 635.6861976 1629.48946863 632.28589249 1632.41160583 C629.74327849 1634.62731231 627.2672905 1636.90884175 624.78589249 1639.19285583 C620.31965734 1643.26645492 615.7291787 1647.12613287 611.02417374 1650.91941833 C608.3760781 1653.09022037 605.78692826 1655.31080207 603.2060585 1657.56004333 C596.19339755 1663.66264923 588.93805572 1669.36203183 581.52026749 1674.96238708 C578.52795626 1677.22255118 575.56157626 1679.51134906 572.61401749 1681.82957458 C571.85894913 1682.42270447 571.10388077 1683.01583435 570.32593155 1683.62693787 C568.92433832 1684.73020864 567.52492412 1685.83625892 566.12866592 1686.9462738 C552.752803 1697.44944659 538.50134137 1706.84420278 524.34839249 1716.25535583 C523.56369583 1716.77765778 522.77899918 1717.29995972 521.97052383 1717.83808899 C453.0068865 1763.70162733 378.6486601 1800.09380795 300.09839249 1826.31785583 C299.40779739 1826.54883972 298.7172023 1826.77982361 298.00568008 1827.01780701 C222.47544151 1852.20845532 141.76811579 1868.70211927 51.09839249 1872.31785583 C51.0696907 1871.67418564 51.04098892 1871.03051544 51.01141739 1870.36734009 C47.06035089 1782.35381131 36.81041351 1695.84918618 -50.90160751 1449.31785583 C-51.49445754 1448.10483988 -52.08722866 1446.89178536 -52.67992783 1445.67869568 C-60.88544891 1428.90740182 -69.46495953 1412.43790857 -78.90160751 1396.31785583 C-79.52680283 1395.24438904 -80.15199814 1394.17092224 -80.79613876 1393.06492615 C-92.24000759 1373.4444469 -104.11281096 1354.09505712 -116.90160751 1335.31785583 C-117.29348251 1334.7397113 -117.68535751 1334.16156677 -118.08910751 1333.56590271 C-133.89173642 1310.27147869 -150.67355169 1287.70126574 -168.55736923 1265.9618988 C-170.38557413 1263.72595043 -172.17470873 1261.45991754 -173.96410751 1259.19285583 C-181.27654636 1250.02916665 -189.02406173 1241.21206699 -196.90160751 1232.53269958 C-198.6976428 1230.54373082 -200.46114055 1228.53222389 -202.21410751 1226.50535583 C-208.9502144 1218.78003046 -215.8907885 1211.20292369 -223.21776962 1204.03416443 C-224.91929602 1202.29982623 -226.49577177 1200.50108888 -228.07348251 1198.65379333 C-231.97988514 1194.16531255 -236.12155566 1189.95013063 -240.33910751 1185.75535583 C-241.05131454 1185.03928162 -241.76352158 1184.3232074 -242.49731064 1183.58543396 C-246.58091697 1179.50924563 -250.77022729 1175.62782093 -255.1401329 1171.86106873 C-257.33068403 1169.94194556 -259.37418747 1167.90765803 -261.40160751 1165.81785583 C-264.72943768 1162.45027343 -268.14672506 1159.27971706 -271.73754501 1156.19676208 C-274.33099646 1153.94504702 -276.86547727 1151.63390866 -279.40160751 1149.31785583 C-283.85169722 1145.25877819 -288.34696893 1141.25911903 -292.90160751 1137.31785583 C-291.58160751 1136.98785583 -290.26160751 1136.65785583 -288.90160751 1136.31785583 C-288.96056448 1098.88150804 -289.03517177 1061.44522233 -289.1305938 1024.0089491 C-289.14186115 1019.58327246 -289.15299974 1015.1575955 -289.16405869 1010.73191833 C-289.16736421 1009.41038083 -289.16736421 1009.41038083 -289.17073651 1008.06214559 C-289.20605148 993.82073947 -289.2309483 979.5793334 -289.25195453 965.3378998 C-289.2737629 950.71090715 -289.30686088 936.08397101 -289.35030907 921.45702648 C-289.37673927 912.44076274 -289.3944981 903.42456934 -289.40095355 894.40826881 C-289.40623397 888.21467385 -289.42253924 882.0211672 -289.44727317 875.82761967 C-289.4611979 872.26112527 -289.47049319 868.69478862 -289.46661568 865.12826538 C-289.4367653 830.68860357 -296.12424469 803.27693335 -320.77660751 778.13035583 C-342.3189042 756.7792332 -370.78984353 748.82167503 -400.42882919 748.91912842 C-402.13793552 748.91367544 -403.84703808 748.90691831 -405.5561347 748.89898652 C-410.20607679 748.88111153 -414.85585797 748.88149963 -419.50582623 748.88511598 C-424.53765596 748.88574362 -429.56943345 748.8690845 -434.60123825 748.854599 C-443.30376709 748.83187756 -452.00625608 748.81993906 -460.70881271 748.81546974 C-473.29100632 748.80899216 -485.87312808 748.78602657 -498.45529264 748.75912645 C-518.87244606 748.71591919 -539.28959644 748.68591786 -559.70678329 748.66429138 C-579.53199378 748.6432635 -599.35717945 748.61597262 -619.18236923 748.58030701 C-620.40582084 748.57810818 -621.62927245 748.57590936 -622.88979834 748.5736439 C-629.02792167 748.5625738 -635.16604476 748.55138107 -641.30416775 748.5401274 C-692.16995905 748.44702816 -743.0357644 748.37539044 -793.90160751 748.31785583 C-794.17673822 709.91367889 -794.38795774 671.50965133 -794.51439147 633.10468693 C-794.52939856 628.56270451 -794.54493056 624.02072403 -794.5607872 619.47874451 C-794.56393493 618.57458151 -794.56708265 617.67041852 -794.57032576 616.73885665 C-794.62243213 602.13057304 -794.71698514 587.52286058 -794.82744107 572.91491493 C-794.93996708 557.90716415 -795.0063773 542.89971089 -795.03066945 527.89155561 C-795.04707232 518.64275122 -795.09872537 509.39556154 -795.19660512 500.14725468 C-795.26041905 493.79091539 -795.27912419 487.43540125 -795.26362404 481.07876547 C-795.25599472 477.41970076 -795.2670287 473.7634407 -795.33207321 470.1048851 C-795.62233525 452.93403345 -794.38119206 440.77964568 -783.362679 427.15531981 C-781.19800535 424.43299589 -779.35414929 421.54744068 -777.46801376 418.62644958 C-776.13741722 416.66667004 -774.80281656 414.70960277 -773.46410751 412.75535583 C-772.74674423 411.7045282 -772.02938095 410.65370056 -771.29027939 409.57102966 C-762.15807778 396.24511814 -752.68174367 383.17528619 -742.90160751 370.31785583 C-742.13719345 369.3085199 -741.37277939 368.29918396 -740.58520126 367.25926208 C-731.65963269 355.52680851 -722.34396781 344.1027843 -712.77367783 332.89109802 C-710.02263544 329.66456683 -707.35355142 326.38587133 -704.71410751 323.06785583 C-700.01264581 317.27817153 -694.89718412 311.89856535 -689.74853134 306.5063324 C-689.09521835 305.82151794 -688.44190536 305.13670349 -687.76879501 304.43113708 C-687.19242294 303.83083679 -686.61605087 303.2305365 -686.02221298 302.61204529 C-684.22097736 300.66336797 -682.48906722 298.67988497 -680.75927353 296.66844177 C-676.48494699 291.76761376 -671.91385395 287.18642565 -667.31176376 282.59519958 C-666.4084079 281.69088699 -665.50505203 280.7865744 -664.57432175 279.8548584 C-662.67364684 277.9535064 -660.77201143 276.05318031 -658.86864853 274.15452576 C-656.4504236 271.74199723 -654.03671794 269.32500502 -651.62433338 266.90663815 C-649.2934235 264.57121008 -646.95866795 262.23963407 -644.62426376 259.90769958 C-643.7688147 259.05022629 -642.91336563 258.19275299 -642.03199387 257.30929565 C-637.68805366 252.98210149 -633.28423029 248.79247299 -628.62603378 244.8041687 C-625.87232482 242.43069926 -623.24015907 239.92952379 -620.58910751 237.44285583 C-615.8140315 232.99997704 -610.91341019 228.79462676 -605.82348251 224.71238708 C-603.04679674 222.43684113 -600.34852583 220.09521977 -597.6557579 217.72215271 C-589.74436448 210.75741296 -581.5180669 204.32971825 -573.10180283 197.99021912 C-570.11592342 195.7206592 -567.16792114 193.40438986 -564.21899033 191.08714294 C-524.535353 159.94949464 -481.36256379 133.04576496 -436.90160751 109.31785583 C-436.01247665 108.84170837 -435.12334579 108.36556091 -434.20727158 107.87498474 C-397.01234499 88.01485511 -358.63174111 70.48878265 -318.90160751 56.31785583 C-317.66924362 55.87796326 -317.66924362 55.87796326 -316.41198349 55.42918396 C-243.48765215 29.46947911 -168.39747304 11.87148825 -91.33910751 4.06785583 C-90.58833939 3.99072357 -89.83757126 3.91359131 -89.06405258 3.8341217 C-83.34872969 3.25540772 -77.62830822 2.76913396 -71.90160751 2.31785583 C-70.276996 2.18705124 -70.276996 2.18705124 -68.61956406 2.05360413 C-45.74446919 0.26574387 -22.93658317 -0.04485389 0 0 Z " fill="#1A341A" transform="translate(2912.9016075134277,1003.6821441650391)"/>
<path d="M0 0 C1.20792206 -0.00171204 2.41584412 -0.00342407 3.66036987 -0.00518799 C6.98402909 -0.0079021 10.30744793 -0.00170689 13.63107795 0.00836357 C17.28118251 0.01715574 20.93128193 0.0141705 24.5813942 0.01272774 C31.6528938 0.01166843 38.72434223 0.02086385 45.79582871 0.0337304 C53.98288896 0.04817829 62.16991884 0.04972251 70.35699463 0.05130005 C91.9531941 0.06178392 113.54938225 0.08970632 135.14556885 0.11550903 C183.40806885 0.15675903 231.67056885 0.19800903 281.39556885 0.24050903 C281.39556885 166.56050903 281.39556885 332.88050903 281.39556885 504.24050903 C415.93562589 504.12173259 415.93562589 504.12173259 550.47564697 503.97024536 C576.49224854 503.95669556 576.49224854 503.95669556 588.67034912 503.95417786 C597.17883799 503.95138206 605.68726766 503.94038512 614.19573975 503.92378235 C624.0144829 503.90465123 633.83316934 503.89600942 643.65193126 503.90017418 C648.67184616 503.9019771 653.69163439 503.89917023 658.71152592 503.88286364 C663.25940038 503.86818068 667.80705952 503.86759301 672.35494423 503.87780571 C673.99079091 503.87906821 675.62665154 503.87534787 677.2624712 503.8658613 C704.42676254 503.7177102 731.18542702 511.41704847 751.39556885 530.24050903 C751.91071045 530.70940552 752.42585205 531.178302 752.956604 531.66140747 C770.5393114 547.77845459 780.59931405 566.98125192 785.39556885 590.24050903 C785.57307395 591.05652903 785.75057905 591.87254902 785.9334631 592.71329689 C786.60993833 597.87677227 786.52918586 602.9972362 786.51582336 608.19934082 C786.51667938 609.41027405 786.5175354 610.62120728 786.51841736 611.86883545 C786.51978333 615.22877185 786.51665156 618.58864991 786.51164158 621.94857928 C786.50727199 625.62793874 786.50873638 629.30729675 786.5094595 632.9866581 C786.50999097 640.12753524 786.50537541 647.26839981 786.49895817 654.40927372 C786.491757 662.66983322 786.49096335 670.93038516 786.49017334 679.19094849 C786.48492341 700.99913733 786.4709623 722.80732337 786.45806885 744.61550903 C786.43744385 793.33175903 786.41681885 842.04800903 786.39556885 892.24050903 C619.74556885 892.24050903 453.09556885 892.24050903 281.39556885 892.24050903 C281.55392047 1027.0195937 281.55392047 1027.0195937 281.75592041 1161.7986145 C281.77398682 1187.86965942 281.77398682 1187.86965942 281.77734375 1200.07574463 C281.7810694 1208.59833197 281.79572306 1217.12081406 281.81787109 1225.64337158 C281.84339838 1235.48087026 281.85489724 1245.31826822 281.84934865 1255.15580023 C281.84694711 1260.18419582 281.85065735 1265.21236654 281.87242937 1270.24072051 C281.89204344 1274.79861084 281.89276719 1279.35611947 281.87917328 1283.91402817 C281.87749346 1285.55125574 281.88242268 1287.18850829 281.89509916 1288.82568765 C282.11129574 1318.52262402 271.05300612 1345.48803513 250.27056885 1366.86550903 C230.78358903 1386.2091179 204.26840444 1396.39459482 176.94491386 1396.49867058 C175.8498559 1396.49284525 174.75479794 1396.48701992 173.6265564 1396.48101807 C172.42506958 1396.4827301 171.22358276 1396.48444214 169.98568726 1396.48620605 C166.68936844 1396.48891396 163.39321156 1396.48274259 160.09691182 1396.47265449 C156.4731521 1396.46384376 152.84939732 1396.46684877 149.22562981 1396.46829033 C142.20952191 1396.46934837 135.19346573 1396.46016543 128.17737108 1396.44728767 C120.05210067 1396.43282386 111.92686081 1396.43129469 103.80157471 1396.42971802 C82.37456463 1396.41923971 60.94756595 1396.39131726 39.52056885 1396.36550903 C-8.37068115 1396.32425903 -56.26193115 1396.28300903 -105.60443115 1396.24050903 C-105.60443115 1229.59050903 -105.60443115 1062.94050903 -105.60443115 891.24050903 C-240.5775035 891.43841659 -240.5775035 891.43841659 -375.55047607 891.69094849 C-401.67144775 891.71353149 -401.67144775 891.71353149 -413.90467834 891.71772766 C-422.43799257 891.72238079 -430.97114218 891.74068104 -439.50440979 891.76838684 C-449.35804365 891.80033201 -459.21152022 891.81466121 -469.06520619 891.80773379 C-474.10017018 891.80473627 -479.13478314 891.80931315 -484.16968191 891.83658469 C-522.03677733 892.03160199 -552.85185236 887.29497575 -581.19818115 859.71707153 C-591.96876757 848.38136176 -598.88927403 835.67634187 -604.60443115 821.24050903 C-604.94345459 820.3858606 -605.28247803 819.53121216 -605.6317749 818.65066528 C-609.28115023 808.6103441 -609.90017943 798.14692534 -609.84494019 787.56015015 C-609.84665222 786.34408081 -609.84836426 785.12801147 -609.85012817 783.87509155 C-609.85284253 780.52863928 -609.84664639 777.18242569 -609.83657661 773.83600241 C-609.82778516 770.16100781 -609.83076964 766.48601833 -609.83221245 762.81101608 C-609.83327181 755.69112558 -609.82407591 748.57128591 -609.81120979 741.45140843 C-609.79676251 733.20841492 -609.79521771 724.96545157 -609.79364014 716.72244263 C-609.78315605 694.97845676 -609.75523365 673.23448212 -609.72943115 651.49050903 C-609.68818115 602.89800903 -609.64693115 554.30550903 -609.60443115 504.24050903 C-443.28443115 504.24050903 -276.96443115 504.24050903 -105.60443115 504.24050903 C-105.72322083 369.28126261 -105.72322083 369.28126261 -105.87469482 234.322052 C-105.88824463 208.23294067 -105.88824463 208.23294067 -105.89076233 196.02349854 C-105.89355976 187.4874219 -105.90456362 178.95140417 -105.92115784 170.41534424 C-105.9402741 160.5673629 -105.94893422 150.71943806 -105.944766 140.87143803 C-105.94296124 135.83538788 -105.94579311 130.79946395 -105.96207654 125.76343703 C-105.97673112 121.20335158 -105.97736532 116.64348103 -105.96713448 112.08338547 C-105.96586923 110.44085267 -105.96961388 108.79830611 -105.97907889 107.1558001 C-106.03347139 97.12141356 -105.1659771 87.98773381 -102.60443115 78.24050903 C-102.314696 77.12459944 -102.02496086 76.00868984 -101.72644585 74.8589648 C-94.76967021 49.1339222 -76.63457377 27.25998103 -53.76849365 13.99832153 C-36.76743719 4.41368794 -19.56909958 -0.10282335 0 0 Z " fill="#FEFEFE" transform="translate(1837.6044311523438,1247.7594909667969)"/>
</svg>
